<svg width="80" height="80" version="1.1" xmlns="http://www.w3.org/2000/svg" desc="Created with imagetracer.js version 1.2.6" ><path fill="rgb(232,240,248)" stroke="rgb(232,240,248)" stroke-width="1" opacity="1" d="M 26.5 14 L 27.5 16 L 26.5 14 Z " /><path fill="rgb(232,240,248)" stroke="rgb(232,240,248)" stroke-width="1" opacity="1" d="M 53.5 14 L 52.5 16 L 53.5 14 Z " /><path fill="rgb(255,255,255)" stroke="rgb(255,255,255)" stroke-width="1" opacity="1" d="M 16 10 L 26 10 L 26 14.5 L 27.5 16 L 52.5 16 Q 55.3 14.6 54 10 L 63.5 10 L 64 10.5 L 64 70 L 16 70 L 16 10 Z M 30 30 L 30 34 Q 33 35 33 32 L 38 32 L 38 52 L 36 52 L 37 54 L 44 54 Q 45 51 42 52 L 42 32 L 48 32 Q 47 35 50 34 L 50 30 L 30 30 Z " /><path fill="rgb(83,146,207)" stroke="rgb(83,146,207)" stroke-width="1" opacity="0.9882352941176471" d="M 36.5 0 Q 44.2 -1.8 46 2.5 L 46.5 4 L 69.5 4 L 70 4.5 L 70 76 L 10 76 L 10 4 L 33.5 4 L 34 2.5 L 36.5 0 Z M 39 3 Q 36 4 37 8 Q 38 10 42 9 Q 44 8 43 5 Q 42 2 39 3 Z M 12 6 L 12 74 L 68 74 L 68 7 L 68 6 L 54 6 L 54 14 L 52 16 L 29 16 L 26 14 L 26 6 L 12 6 Z M 28 6 Q 26 12 30 14 L 51 14 L 52 13 L 52 6 L 46 6 Q 47 11 43 12 Q 35 13 34 9 L 34 6 L 28 6 Z " /><path fill="rgb(83,146,207)" stroke="rgb(83,146,207)" stroke-width="1" opacity="0.9882352941176471" d="M 30 30 L 49.5 30 L 50 33.5 L 49 33.5 L 48.5 32 L 42 32 L 42 51.5 Q 44.8 50.9 44 54 L 36.5 54 L 36 52 L 38 51.5 L 38 32 L 31.5 32 L 31 33.5 L 30 33.5 L 30 30 Z " /><path fill="rgb(0,1,2)" stroke="rgb(0,1,2)" stroke-width="1" opacity="0" d="M 0 0 L 36 0.5 L 34 4 L 10 4 L 10 76 L 70 76 L 70 4 L 46.5 4 L 46 2.5 L 44.5 0 L 80 0 L 80 80 L 0 80 L 0 0 Z " /><path fill="rgb(0,1,2)" stroke="rgb(0,1,2)" stroke-width="1" opacity="0" d="M 38.5 3 Q 42.3 2.3 43 4.5 Q 43.8 8.3 41.5 9 Q 37.8 9.8 37 7.5 Q 36.3 3.8 38.5 3 Z " /><path fill="rgb(182,219,253)" stroke="rgb(182,219,253)" stroke-width="1" opacity="1" d="M 28 6 L 34 6 L 34 8.5 Q 35.2 13.2 42.5 12 Q 46.8 10.7 46 6 L 52 6 L 52 12.5 L 50.5 14 L 29.5 14 Q 26.3 12.1 28 6 Z " /><path fill="rgb(182,220,254)" stroke="rgb(182,220,254)" stroke-width="1" opacity="1" d="M 13.5 6 L 25.5 6 L 26 10 L 16.5 10 L 16 10.5 L 16 70 L 64 70 L 64 10 L 54 10 L 54 6 L 66.5 6 L 68 7.5 L 68 72.5 L 66.5 74 L 13.5 74 L 12 72.5 L 12 7.5 L 13.5 6 Z " /></svg>